# xmcd
#
# Track frame offsets:
#	150
#	12912
#	32656
#	49796
#	67094
#	81544
#
# Disc length: 1375 seconds
#
# Revision: 1
# Processed by: cddbd v1.5.2PL0 Copyright (c) Steve Scherf et al.
# Submitted via: audiograbber 1.83.01
#
DISCID=4c055d06
DTITLE=Brandon Wolfe Scott - The Postcard Writer
DYEAR=2016
DGENRE=Indie
TTITLE0=Anymore
TTITLE1=Heartless
TTITLE2=All That I've Done
TTITLE3=The Postcard Writer
TTITLE4=Sleepin' By Your Side
TTITLE5=Island Mountain
EXTD=
EXTT0=
EXTT1=
EXTT2=
EXTT3=
EXTT4=
EXTT5=
PLAYORDER=
